<?xml version="1.0" standalone="no"?>
<!DOCTYPE svg PUBLIC "-//W3C//DTD SVG 20010904//EN"
 "http://www.w3.org/TR/2001/REC-SVG-20010904/DTD/svg10.dtd">
<svg version="1.0" xmlns="http://www.w3.org/2000/svg"
 width="1144.000000pt" height="725.000000pt" viewBox="0 0 1144.000000 725.000000"
 preserveAspectRatio="xMidYMid meet">

<g transform="translate(0.000000,725.000000) scale(0.100000,-0.100000)"
fill="#000000" stroke="none">
<path d="M8170 4797 c0 -2 51 -49 112 -103 62 -55 124 -109 138 -122 14 -13
80 -71 148 -130 67 -58 122 -110 122 -115 0 -9 -115 -232 -183 -357 -16 -30
-23 -48 -15 -40 21 20 297 406 303 423 2 7 -87 75 -213 162 -119 83 -260 181
-314 218 -54 38 -98 66 -98 64z"/>
<path d="M7840 4465 c-91 -102 -170 -185 -176 -185 -6 0 -96 39 -200 86 l-189
86 -155 -36 c-85 -20 -369 -86 -630 -147 l-475 -111 -420 5 -420 4 -320 -104
c-176 -58 -402 -132 -502 -164 l-183 -60 -675 -49 c-372 -26 -678 -49 -680
-51 -2 -2 74 -253 168 -557 123 -398 175 -552 185 -552 13 0 191 51 1057 305
83 25 332 89 555 143 l405 100 460 22 460 22 335 90 c483 131 529 142 535 137
2 -3 29 -115 60 -249 30 -134 57 -245 59 -248 3 -2 90 23 194 57 105 34 196
61 203 61 7 0 47 -37 88 -81 l76 -82 149 49 149 49 59 160 c33 88 63 163 66
167 4 4 115 -13 247 -37 131 -24 241 -43 242 -41 5 4 73 387 73 406 0 10 -42
31 -127 64 -71 27 -152 60 -181 72 -51 23 -52 24 -38 46 60 94 266 464 262
472 -3 10 -538 337 -547 336 -2 -1 -78 -84 -169 -185z m275 -204 c48 -21 90
-69 118 -130 38 -87 -1 -228 -80 -288 l-32 -25 31 -39 c17 -21 39 -39 49 -39
9 0 45 -24 80 -52 34 -29 103 -73 153 -98 96 -48 103 -56 91 -116 -8 -46 -50
-71 -130 -79 -54 -6 -68 -4 -113 19 -69 35 -119 80 -133 121 -13 35 -29 38
-29 6 0 -52 -37 -128 -90 -185 -80 -86 -102 -121 -130 -205 -28 -82 -52 -107
-116 -121 -21 -5 -58 -6 -81 -3 -38 5 -50 14 -108 81 -54 63 -65 82 -65 112 0
52 23 121 60 182 32 52 32 53 5 28 -55 -50 -101 -136 -119 -221 -4 -18 -17
-30 -43 -41 -21 -9 -73 -32 -117 -52 l-78 -36 26 30 c31 38 41 87 28 137 l-10
38 -1 -55 c-1 -65 -25 -119 -63 -140 -24 -13 -29 -13 -42 0 -18 18 -64 154
-72 212 -9 68 5 78 241 162 204 74 210 77 250 123 51 61 129 140 180 182 22
19 35 31 29 27 -15 -8 -39 20 -25 29 6 3 28 5 50 3 22 -1 43 1 46 4 3 3 -3 21
-14 39 -81 137 -65 275 40 354 76 57 144 68 214 36z m-2505 -590 l0 -279 -50
-11 c-87 -19 -80 -33 -80 177 0 108 -4 181 -9 172 -5 -8 -23 -96 -41 -195 -17
-99 -33 -181 -34 -183 -2 -1 -26 -5 -53 -8 l-49 -6 -17 78 c-9 44 -24 120 -33
169 -9 50 -21 94 -25 100 -5 5 -9 -72 -9 -177 0 -208 6 -193 -80 -204 l-50 -7
0 57 c0 31 4 56 9 56 18 0 21 33 6 56 -13 20 -15 55 -13 206 l3 183 90 17 c50
9 95 17 101 17 6 1 21 -56 34 -131 12 -73 26 -142 30 -153 9 -24 10 -20 41
170 12 72 23 132 25 134 3 3 126 28 197 40 4 0 7 -125 7 -278z m-590 -34 c0
-112 -3 -207 -6 -210 -4 -3 -8 -22 -9 -40 -4 -75 -75 -130 -187 -146 -83 -11
-125 2 -152 49 -20 32 -21 51 -21 260 l0 224 60 13 c33 7 66 12 72 13 10 0 13
-55 15 -227 l3 -228 26 -3 c14 -2 31 3 37 11 8 9 13 88 14 238 l3 224 55 12
c99 20 90 40 90 -190z m2751 167 c12 -14 8 -20 -26 -47 -50 -39 -120 -109
-166 -165 -26 -32 -43 -44 -72 -49 -34 -5 -37 -4 -37 18 0 13 17 53 38 88 41
70 110 126 192 154 57 20 55 20 71 1z m-3247 -68 c41 -17 68 -71 64 -128 -3
-45 -7 -47 -95 -62 l-43 -6 0 38 c0 21 -6 47 -14 57 -13 18 -15 18 -38 3 -32
-21 -38 -53 -37 -197 1 -129 7 -159 32 -175 28 -18 51 16 57 82 l5 57 50 12
c90 20 88 22 83 -56 -6 -121 -72 -183 -206 -197 -80 -9 -116 6 -145 60 -19 37
-22 56 -22 186 0 216 30 281 147 321 64 22 117 24 162 5z m-390 -328 c36 -144
63 -265 59 -268 -12 -10 -135 -30 -144 -24 -5 3 -9 20 -9 39 0 43 -10 48 -70
40 -52 -7 -53 -9 -64 -76 -6 -36 -7 -36 -77 -48 -39 -7 -72 -11 -74 -9 -4 4
124 569 130 576 3 3 142 29 166 31 12 1 30 -53 83 -261z m-406 -75 l-3 -278
-50 -11 c-92 -22 -84 -38 -87 179 l-3 192 -34 -193 c-19 -105 -38 -197 -41
-202 -3 -5 -28 -11 -55 -12 l-49 -3 -36 180 -35 180 -3 -191 -2 -191 -57 -12
c-31 -6 -62 -11 -70 -11 -10 0 -13 44 -13 222 l0 221 22 -19 22 -19 -22 36
c-22 36 -30 103 -14 113 12 7 194 38 199 33 2 -2 16 -68 30 -146 15 -77 29
-141 33 -141 3 0 14 51 24 113 10 61 22 133 28 158 l9 45 87 16 c48 8 95 16
105 17 16 1 17 -16 15 -276z"/>
<path d="M7876 4145 c-25 -25 -29 -54 -12 -80 27 -40 67 -31 86 19 20 54 -35
100 -74 61z"/>
<path d="M8025 4125 c-14 -13 -25 -33 -25 -44 0 -21 44 -61 67 -61 19 0 63 45
63 65 0 21 -44 65 -65 65 -9 0 -27 -11 -40 -25z m32 -47 c-3 -8 -6 -5 -6 6 -1
11 2 17 5 13 3 -3 4 -12 1 -19z"/>
<path d="M7878 3978 c-10 -10 -13 -18 -8 -18 6 0 10 -9 10 -20 0 -25 17 -26
23 -2 4 13 5 11 6 -5 1 -25 16 -31 24 -10 4 9 8 9 14 0 4 -6 19 -11 33 -10 14
0 33 -3 43 -7 10 -5 17 -4 17 2 0 5 -11 13 -25 16 -14 4 -23 11 -20 15 3 5 -4
7 -15 4 -12 -3 -20 0 -20 6 0 7 -5 9 -12 5 -8 -5 -9 -2 -5 9 7 18 -8 24 -18 7
-10 -16 -23 -12 -27 8 -3 17 -4 17 -20 0z"/>
<path d="M8121 3716 c14 -13 69 -35 69 -28 0 9 -44 32 -62 32 -6 0 -9 -2 -7
-4z"/>
<path d="M8120 3655 c33 -19 50 -18 26 0 -11 8 -27 15 -35 15 -10 -1 -7 -6 9
-15z"/>
<path d="M7675 3271 c-38 -11 -85 -29 -85 -34 0 -2 23 2 52 9 29 8 59 14 68
14 42 0 98 -26 129 -59 l35 -36 -19 34 c-11 19 -31 42 -45 52 -30 22 -93 31
-135 20z"/>
<path d="M3971 3520 c-1 -3 -8 -43 -16 -90 -22 -127 -22 -134 17 -126 17 3 34
8 36 11 6 5 -18 163 -29 190 -4 11 -8 18 -8 15z"/>
<path d="M6341 4385 l-373 -63 -466 13 c-257 8 -468 13 -469 11 -2 -2 20 -6
49 -9 29 -3 245 -27 481 -53 l427 -46 373 102 c204 56 374 104 376 106 8 7
-18 3 -398 -61z"/>
<path d="M2601 3903 c0 -10 29 -205 64 -433 39 -257 63 -394 64 -360 1 30 -6
205 -15 388 -9 183 -14 335 -11 338 3 4 76 17 163 30 86 12 158 25 160 27 4 3
-345 27 -398 27 -20 0 -28 -5 -27 -17z"/>
<path d="M8102 3243 c-38 -104 -132 -363 -141 -385 -6 -16 -9 -28 -7 -28 2 0
61 77 131 171 124 168 127 171 158 166 40 -7 526 -19 512 -12 -9 4 -623 115
-637 115 -3 0 -11 -12 -16 -27z"/>
<path d="M2951 2987 c-1 -7 140 -569 144 -575 1 -1 122 39 270 90 147 51 263
94 258 95 -6 2 -124 -10 -264 -26 -139 -17 -255 -28 -257 -26 -2 1 -36 104
-77 226 -40 123 -73 221 -74 216z"/>
</g>
</svg>
