<?xml version="1.0" standalone="no"?>
<!DOCTYPE svg PUBLIC "-//W3C//DTD SVG 20010904//EN"
 "http://www.w3.org/TR/2001/REC-SVG-20010904/DTD/svg10.dtd">
<svg version="1.0" xmlns="http://www.w3.org/2000/svg"
 width="571.000000pt" height="571.000000pt" viewBox="0 0 571.000000 571.000000"
 preserveAspectRatio="xMidYMid meet">

<g transform="translate(0.000000,571.000000) scale(0.100000,-0.100000)"
fill="#000000" stroke="none">
<path d="M2340 5269 c-41 -10 -205 -48 -365 -84 -402 -91 -516 -117 -513 -121
2 -1 204 20 448 47 245 27 456 48 468 47 27 -3 32 -16 162 -376 40 -111 74
-201 76 -199 2 1 -1 21 -6 42 -5 22 -18 83 -29 135 -11 52 -33 158 -50 235
-16 77 -37 175 -46 218 -20 90 -17 89 -145 56z"/>
<path d="M170 5126 c0 -10 37 -264 50 -341 6 -33 31 -199 56 -370 25 -170 56
-382 69 -470 14 -88 30 -197 36 -243 7 -45 14 -81 15 -79 3 3 -44 1066 -58
1322 l-3 50 265 37 c146 21 273 42 284 46 10 5 -106 15 -270 25 -159 10 -324
21 -366 24 -43 3 -78 3 -78 -1z"/>
<path d="M2270 5080 c-30 -4 -98 -13 -150 -19 -206 -24 -275 -32 -845 -100
-324 -39 -633 -76 -685 -82 -52 -6 -106 -13 -119 -15 l-24 -5 7 -307 c3 -169
11 -464 16 -657 9 -349 20 -758 41 -1565 19 -785 27 -1011 32 -1017 5 -4 253
59 747 192 69 19 170 46 225 60 55 15 259 69 454 121 194 52 359 94 365 94 6
0 46 -98 89 -218 43 -119 107 -296 142 -392 35 -96 85 -235 111 -309 26 -73
53 -135 59 -137 6 -2 150 40 320 95 171 54 318 101 327 103 10 2 43 -27 89
-77 40 -44 96 -106 125 -137 l52 -57 104 34 c57 18 155 50 218 70 63 20 127
41 141 46 23 9 38 42 129 286 102 270 104 275 129 270 242 -48 772 -140 777
-135 7 7 127 678 122 683 -7 7 -566 225 -576 225 -7 0 -12 6 -12 14 0 13 70
188 181 450 28 65 48 124 46 130 -3 7 -57 43 -121 81 -109 66 -130 85 -106
100 17 10 11 54 -10 75 -27 27 -66 25 -96 -5 l-25 -25 -154 92 c-84 51 -196
119 -249 151 l-95 57 -49 -52 c-27 -29 -63 -69 -80 -88 -17 -19 -32 -33 -35
-30 -3 3 -20 88 -39 190 -26 141 -38 185 -49 184 -8 -1 -164 -34 -346 -74
-183 -41 -335 -72 -337 -69 -2 2 -8 221 -12 487 -4 265 -10 484 -13 486 -3 2
-67 -9 -141 -25 -74 -16 -155 -33 -180 -39 -25 -5 -104 -22 -177 -38 l-131
-28 -6 30 c-3 17 -21 166 -41 331 -61 505 -70 568 -80 570 -5 1 -35 -1 -65 -5z
m-163 -246 c3 -9 -2 -32 -11 -52 -13 -30 -13 -33 -1 -18 21 27 29 15 54 -84
12 -47 55 -217 97 -379 41 -161 74 -295 72 -297 -9 -8 -221 -45 -234 -40 -7 3
-16 30 -20 66 -4 37 -12 64 -20 67 -20 8 -166 -25 -175 -39 -4 -7 -11 -41 -15
-75 -3 -35 -11 -66 -17 -70 -10 -6 -229 -51 -234 -48 -1 0 15 75 36 166 22 90
69 297 106 459 37 162 69 297 71 299 3 3 248 56 277 60 4 1 10 -6 14 -15z
m-539 -536 l-3 -442 -85 -18 c-47 -9 -95 -17 -107 -18 l-23 0 -1 318 -1 317
-23 -120 c-26 -134 -32 -164 -72 -387 l-28 -158 -55 -11 c-30 -6 -68 -12 -84
-13 l-29 -1 -56 293 c-31 160 -59 292 -63 292 -5 0 -8 -139 -8 -309 l0 -308
-102 -20 c-57 -11 -104 -20 -105 -19 -2 1 -3 200 -3 441 -1 349 2 440 12 446
17 9 308 62 313 57 2 -2 22 -105 45 -228 47 -261 54 -284 64 -220 28 186 80
477 87 484 8 9 263 63 307 65 l22 1 -2 -442z m1332 -713 c0 -245 -3 -445 -7
-445 -5 0 -51 -9 -103 -19 -52 -11 -96 -18 -98 -17 -1 2 -3 141 -4 310 -1 169
-5 303 -9 299 -5 -6 -119 -613 -119 -636 0 -6 -160 -30 -166 -25 -2 3 -20 86
-39 184 -19 98 -45 233 -58 299 l-25 120 -1 -317 c0 -175 -3 -318 -5 -318 -2
0 -48 -9 -101 -20 -53 -11 -101 -20 -106 -20 -5 0 -9 191 -9 443 l0 444 162
31 c89 17 164 30 166 27 4 -3 44 -215 87 -454 4 -18 8 -31 11 -28 3 2 25 120
49 262 24 142 46 259 47 260 3 4 295 62 316 64 9 1 12 -94 12 -444z m-950
-424 c-31 -180 -140 -263 -365 -278 -104 -7 -137 5 -178 59 -44 60 -48 100
-45 458 l3 335 113 21 112 21 0 -346 c0 -298 2 -350 16 -369 28 -40 86 -23
110 33 11 27 14 103 14 370 0 259 3 337 13 340 6 3 57 13 112 23 l100 18 3
-311 c2 -192 -1 -334 -8 -374z m-805 518 c24 -7 55 -27 76 -49 31 -32 39 -51
49 -107 7 -37 10 -81 9 -98 -4 -29 -6 -30 -94 -47 -141 -27 -135 -28 -135 43
0 73 -12 99 -46 99 -39 0 -61 -17 -76 -57 -17 -50 -18 -475 0 -515 22 -52 92
-45 113 10 6 15 13 64 16 109 5 76 8 83 27 83 12 1 60 9 109 19 l87 17 0 -76
c0 -218 -126 -343 -363 -357 -133 -9 -190 30 -222 152 -32 124 -29 396 6 529
l10 38 31 -28 31 -29 -21 36 c-30 50 -28 63 20 115 51 55 100 82 193 105 83
21 126 23 180 8z m3230 -768 c61 -27 137 -99 130 -122 -5 -14 -2 -17 8 -13 11
4 23 -12 43 -53 27 -53 29 -67 29 -168 -1 -97 -4 -117 -27 -165 -37 -79 -81
-135 -139 -176 l-50 -37 30 -21 c16 -11 40 -37 53 -58 19 -30 31 -37 66 -43
35 -5 58 -20 123 -79 87 -79 187 -141 301 -187 40 -16 81 -39 91 -50 23 -28
22 -102 -3 -157 -23 -51 -54 -67 -174 -88 -72 -12 -87 -12 -136 2 -72 21 -135
54 -197 102 -57 45 -89 92 -114 167 -15 44 -18 46 -18 20 -2 -48 -39 -192 -62
-238 -12 -23 -58 -80 -103 -127 -127 -132 -182 -224 -217 -358 -31 -120 -86
-162 -226 -170 -135 -7 -138 -6 -248 117 -54 60 -104 124 -112 142 -32 77 25
263 125 407 64 92 -18 18 -98 -90 -56 -75 -108 -191 -124 -279 -5 -26 -14 -40
-34 -49 -208 -97 -377 -170 -386 -166 -6 2 -3 5 7 5 10 1 37 21 61 45 56 55
73 122 56 215 -10 55 -35 131 -44 131 -2 0 3 -23 10 -52 38 -144 -7 -281 -107
-334 -24 -12 -29 -11 -51 9 -29 27 -76 152 -108 286 -37 152 -16 185 152 242
l69 24 21 -25 20 -25 -16 28 c-13 21 -14 28 -4 32 55 19 294 104 383 137 109
40 110 40 162 106 67 86 241 259 318 317 33 25 81 55 107 68 51 24 55 32 34
62 -32 47 -64 115 -85 178 -71 211 39 419 264 500 61 22 155 17 220 -12z
m-426 -705 c-2 -2 -27 -18 -56 -34 -51 -30 -52 -30 -69 -11 -21 23 -11 36 31
42 42 6 99 8 94 3z m-140 -50 l22 -23 -49 -35 c-75 -54 -176 -152 -259 -252
-64 -76 -84 -94 -125 -109 -107 -38 -113 5 -23 163 43 77 68 109 113 144 90
72 216 133 278 135 11 1 31 -10 43 -23z"/>
<path d="M1926 4440 c-16 -99 -27 -182 -25 -184 9 -9 119 17 119 27 1 26 -55
337 -60 337 -3 0 -18 -81 -34 -180z"/>
<path d="M4004 2740 c-34 -13 -54 -50 -54 -98 0 -54 12 -77 47 -90 58 -20 113
31 113 105 0 70 -47 107 -106 83z m46 -70 c8 -5 11 -12 7 -17 -5 -4 -12 -1
-17 7 -8 12 -10 12 -16 -3 -3 -9 -10 -17 -15 -17 -5 0 -4 9 3 20 14 23 17 23
38 10z"/>
<path d="M4219 2691 c-64 -65 -19 -171 73 -171 58 0 98 42 98 103 0 38 -5 49
-31 71 -44 37 -101 36 -140 -3z m65 -52 c-3 -5 -10 -7 -15 -3 -5 3 -7 10 -3
15 3 5 10 7 15 3 5 -3 7 -10 3 -15z m36 1 c0 -5 -4 -10 -10 -10 -5 0 -10 5
-10 10 0 6 5 10 10 10 6 0 10 -4 10 -10z m-40 -30 c0 -5 -4 -10 -10 -10 -5 0
-10 5 -10 10 0 6 5 10 10 10 6 0 10 -4 10 -10z m40 0 c0 -5 -4 -10 -10 -10 -5
0 -10 5 -10 10 0 6 5 10 10 10 6 0 10 -4 10 -10z"/>
<path d="M4007 2473 c-4 -3 -7 -15 -7 -25 0 -15 -5 -18 -19 -13 -11 3 -22 1
-26 -5 -4 -7 2 -14 13 -17 15 -3 22 -15 24 -37 3 -36 21 -42 26 -8 5 33 22 27
22 -9 0 -35 23 -36 28 -1 4 25 32 19 32 -8 0 -22 37 -33 48 -14 7 13 14 12 51
-1 52 -18 51 -18 51 -4 0 6 -18 18 -40 26 -32 13 -38 19 -29 30 17 20 4 27
-15 8 -21 -22 -46 -12 -46 17 -1 22 -1 22 -15 4 -19 -25 -30 -14 -15 14 15 28
3 41 -15 16 -8 -10 -16 -23 -17 -28 -2 -5 -12 -6 -22 -2 -14 5 -17 14 -12 35
5 27 -2 37 -17 22z m133 -117 c0 -3 -4 -8 -10 -11 -5 -3 -10 -1 -10 4 0 6 5
11 10 11 6 0 10 -2 10 -4z"/>
<path d="M4387 2024 c-4 -4 19 -20 50 -36 55 -28 72 -30 58 -9 -13 22 -96 56
-108 45z"/>
<path d="M4340 1944 c0 -8 77 -46 103 -52 19 -5 7 15 -19 30 -36 21 -84 33
-84 22z"/>
<path d="M3640 1287 c-43 -13 -163 -68 -158 -73 2 -1 37 9 78 23 166 56 321
18 387 -94 32 -56 42 -49 13 9 -47 92 -116 138 -215 144 -33 2 -80 -2 -105 -9z"/>
<path d="M376 1893 c-8 -252 -24 -646 -31 -789 l-6 -111 63 17 c112 32 1481
431 1543 450 112 35 75 29 -770 -124 -689 -126 -757 -138 -759 -134 -2 2 -8
201 -15 443 -7 242 -14 441 -15 442 -2 2 -6 -86 -10 -194z"/>
<path d="M4390 1205 c-5 -13 -29 -80 -54 -147 -25 -68 -81 -222 -125 -342 -44
-121 -79 -221 -78 -222 3 -3 0 -7 247 330 l175 238 120 -6 c66 -3 239 -11 385
-16 146 -5 317 -12 380 -14 l115 -5 -95 19 c-125 26 -1028 190 -1046 190 -8 0
-19 -11 -24 -25z"/>
</g>
</svg>
